<?xml version="1.0" encoding="utf-8"?>
<!-- Generator: Adobe Illustrator 18.1.1, SVG Export Plug-In . SVG Version: 6.00 Build 0)  -->
<!DOCTYPE svg PUBLIC "-//W3C//DTD SVG 1.1//EN" "http://www.w3.org/Graphics/SVG/1.1/DTD/svg11.dtd">
<svg version="1.1" id="Layer_1" xmlns="http://www.w3.org/2000/svg" xmlns:xlink="http://www.w3.org/1999/xlink" x="0px" y="0px"
	 viewBox="46.5 369.5 1824.4 341.2" enable-background="new 46.5 369.5 1824.4 341.2" xml:space="preserve">
<path fill="#FFFFFF" d="M1760.4,660.9v-44.5l2.5,0.6c9.1,2.3,17.7,4.7,25.7,7.4l1.4,0.4v36.1H1760.4z"/>
<path fill="#FFFFFF" d="M1762.4,658.9h25.6v-32.6c-8-2.6-16.6-5.1-25.6-7.3V658.9z"/>
<path fill="#FFFFFF" d="M898.2,428.6h29v55.5l-1.8,0.2c-7.9,0.7-16.3,1.7-24.9,2.8l-2.3,0.3V428.6z"/>
<path fill="#FFFFFF" d="M925.1,430.6h-25V485c8.4-1.1,16.7-2,25-2.8V430.6z"/>
<path fill="#FFFFFF" d="M97,428.6h32.9l48.6,117.8l-2.8,0.1c-9,0.4-17.9,0.9-26.3,1.3L148,548L97,428.6z"/>
<path fill="#FFFFFF" d="M128.6,430.6H100l49.2,115.3c8.5-0.4,17.3-0.9,26.4-1.3L128.6,430.6z"/>
<path fill="#FFFFFF" d="M285.9,428.6h31.9L269,542.9l-1.3,0c-8.5,0.2-17.4,0.5-26.5,0.8l-3.1,0.1L285.9,428.6z"/>
<path fill="#FFFFFF" d="M314.8,430.6h-27.5l-46.1,111.1c8.8-0.3,17.7-0.6,26.5-0.8L314.8,430.6z"/>
<path fill="#FFFFFF" d="M193.3,661.1l-37-86.7l2.9-0.1c8.4-0.4,17.1-0.8,26-1.3l1.4-0.1l19.8,47.9l20.5-49.6l1.3,0
	c8.9-0.3,17.7-0.6,26.2-0.9l3.1-0.1l-38.8,90.9H193.3z"/>
<path fill="#FFFFFF" d="M206.3,626l-21.1-51c-8.9,0.4-17.5,0.8-26,1.3l35.4,82.8h22.7l37.1-86.8c-8.7,0.3-17.5,0.6-26.2,0.9
	L206.3,626z"/>
<path fill="#FFFFFF" d="M438.1,660.9V576l2.3,0.4c8.3,1.4,16.8,2.5,25.5,3.4l1.8,0.2v53.6h140v27.3H438.1z"/>
<path fill="#FFFFFF" d="M440.1,658.9h165.6v-23.3h-140v-53.8c-8.6-0.9-17.1-2-25.6-3.4V658.9z"/>
<path fill="#FFFFFF" d="M515.5,555.3c-26.7,0-52.2-2.1-75.8-6.3l-1.7-0.3V428.6h169.7V456H467.7v73.4h123.8v21l-1.8,0.2
	C563.1,553.8,538.8,555.3,515.5,555.3C515.5,555.3,515.5,555.3,515.5,555.3z"/>
<path fill="#FFFFFF" d="M589.5,548.6v-17.2H465.7V454h140.1v-23.3H440.1V547C488.6,555.6,538.8,554.6,589.5,548.6z"/>
<path fill="#FFFFFF" d="M903.9,660.9L803.6,532.3l3.1-0.7c9.6-2.1,18.3-4,26.6-5.7l1.2-0.2l63.6,81v-92.1l1.7-0.2
	c8.7-1.2,17.1-2.2,25-2.9l2.2-0.2v149.8H903.9z"/>
<path fill="#FFFFFF" d="M900.2,612.4l-66.4-84.5c-8.8,1.8-17.7,3.7-26.6,5.7l97.7,125.4h20.3V513.3c-8.2,0.8-16.5,1.8-25,2.9V612.4z
	"/>
<path fill="#FFFFFF" d="M731.3,428.6h26.9l57.7,73.4l-3.1,0.7c-8,1.7-16.6,3.6-26.5,5.8l-1.2,0.3l-24.9-31.6v37.3l-10.2,2.3
	c-5.4,1.2-10.9,2.5-16.3,3.7l-2.4,0.6V428.6z"/>
<path fill="#FFFFFF" d="M758.2,512.9v-41.4l27.7,35.1c8.9-2,17.7-3.9,26.5-5.8l-55.1-70.1h-24v88c5.4-1.2,10.9-2.5,16.3-3.7
	C752.5,514.2,755.4,513.6,758.2,512.9z"/>
<path fill="#FFFFFF" d="M731.3,660.9V548.7l1.6-0.4c7.8-1.8,15.5-3.5,23.2-5.3l4.2-1v118.8H731.3z"/>
<path fill="#FFFFFF" d="M733.3,550.3v108.6h24.9V544.6c-0.6,0.1-1.2,0.3-1.7,0.4C748.8,546.8,741,548.6,733.3,550.3z"/>
<path fill="#FFFFFF" d="M1102.8,512c-8.8-3.1-17.2-5.9-25.6-8.7l-1.4-0.5v-74.2h29.6V513L1102.8,512z"/>
<path fill="#FFFFFF" d="M1103.4,430.6h-25.6v70.8c8.8,3,17.4,5.9,25.6,8.7V430.6z"/>
<path fill="#FFFFFF" d="M1075.8,660.9V531.2l2.6,0.9c8.4,2.8,17,5.8,25.6,8.9l1.3,0.5v119.4H1075.8z"/>
<path fill="#FFFFFF" d="M1077.8,658.9h25.6v-116c-8.2-2.9-16.8-5.9-25.6-8.9V658.9z"/>
<path fill="#FFFFFF" d="M1568.9,660.9v-64.8l2,0c8.4,0.1,16.8,0.4,25,0.6l1.9,0.1v64H1568.9z"/>
<path fill="#FFFFFF" d="M1570.9,658.9h24.9v-60.1c-8.2-0.3-16.5-0.5-24.9-0.6V658.9z"/>
<path fill="#FFFFFF" d="M1787.4,595.8c-8.1-2.4-16.6-4.7-25.5-6.7l-1.5-0.4V480.2l-66,97l-1.2-0.1c-9.8-1.2-20.2-2.3-30.8-3.3
	l-0.9-0.1l-63.6-93.2v89.4l-2.1-0.1c-8.1-0.3-16.4-0.5-24.9-0.6l-2,0V428.6h29l81.6,122.2l81.6-122.2h29v167.9L1787.4,595.8z"/>
<path fill="#FFFFFF" d="M1595.8,474l66.7,97.8c10.6,1,20.9,2,30.9,3.3l69-101.4v113.4c8.9,2.1,17.5,4.4,25.6,6.8V430.6H1762
	l-82.6,123.8l-82.6-123.8h-25.9v136.6c8.5,0.1,16.8,0.4,24.9,0.6V474z"/>
<polygon fill="#4495CC" points="1416.2,661 1337,469 1257.4,661 1225.5,661 1324.6,429 1349.9,429 1449.1,661 "/>
<polygon fill="#4495CC" points="1348.6,431 1325.9,431 1228.5,659 1256,659 1337,463.8 1417.6,659 1446.1,659 "/>
<path fill="#4495CC" d="M1322,661v-54.6l2.1,0.1c3.9,0.2,8.1,0.3,12.4,0.3c4.6,0,9.4-0.1,14.4-0.3l2.1-0.1V661H1322z"/>
<path fill="#4495CC" d="M1324,608.5V659h27v-50.5C1341,608.9,1332,608.9,1324,608.5z"/>
</svg>
